# xmcd
#
# Track frame offsets:
#	150
#	13639
#	22104
#	36694
#	48970
#	60096
#	75687
#	86016
#	99569
#	116322
#	128181
#	145847
#	162053
#	171651
#	186200
#	199275
#	211496
#	228948
#	252791
#	267255
#	280254
#	293517
#	314490
#
# Disc length: 4366 seconds
#
# Revision: 0
# Processed by: cddbd v1.4PL0 Copyright (c) Steve Scherf et al.
# Submitted via: audiograbber 1.81.02
#
DISCID=49110c17
DTITLE=Gilbert Becaud - A l'Olympia 88
DYEAR=1900
DGENRE=
TTITLE0=Mes Mains
TTITLE1=Le bateau blanc
TTITLE2=Le marchés de province
TTITLE3=C'Etait moi
TTITLE4=Quand tu dances
TTITLE5=Marie, marie
TTITLE6=Quand Jules est au violon
TTITLE7=Au revoir
TTITLE8=Nathali
TTITLE9=Quand il est mort le poéte
TTITLE10=La ballades des baladins
TTITLE11=Et le spectacle continue
TTITLE12=Le jour ou la pluie viendra
TTITLE13=Tete de bois
TTITLE14=Le mur
TTITLE15=Mademoiselle Lise
TTITLE16=L'abcent
TTITLE17=Le Caraibes
TTITLE18=Mon pére a moi
TTITLE19=Et maintenant
TTITLE20=L'important c'est la rose
TTITLE21=C'étain mon copain
TTITLE22=Quand le spectacle est terminé
EXTD=
EXTT0=
EXTT1=
EXTT2=
EXTT3=
EXTT4=
EXTT5=
EXTT6=
EXTT7=
EXTT8=
EXTT9=
EXTT10=
EXTT11=
EXTT12=
EXTT13=
EXTT14=
EXTT15=
EXTT16=
EXTT17=
EXTT18=
EXTT19=
EXTT20=
EXTT21=
EXTT22=
PLAYORDER=
